# xmcd
#
# Track frame offsets:
#	150
#	14653
#	26680
#	40422
#	58883
#	82400
#	100557
#	116439
#	135314
#	151282
#	165302
#	183811
#	201996
# Disc length: 2897 seconds
# Revision: 2
# Processed by: cddbd v1.5.2PL0 Copyright (c) Steve Scherf et al.
#
# Submitted via: libkcddb 0.31
#
DISCID=a70b4f0d
DTITLE=John Schumann and The Vagabond Crew. - Lawson
DYEAR=2005
DGENRE=Folk/Rock
TTITLE0=To An Old Mate
TTITLE1=Knocking Around
TTITLE2=The Glass On The Bar
TTITLE3=Second Class Wait Here
TTITLE4=Faces In The Street
TTITLE5=The Bush Girl
TTITLE6=Taking His Chance
TTITLE7=Scots Of The Riverina
TTITLE8=To Hannah
TTITLE9=A Prouder Man Than You
TTITLE10=The Low Lighthouse
TTITLE11=The Shame Of Going Back
TTITLE12=To Jim
EXTD=Suitable also for Folk play.
EXTT0=
EXTT1=
EXTT2=
EXTT3=
EXTT4=
EXTT5=
EXTT6=
EXTT7=
EXTT8=
EXTT9=
EXTT10=
EXTT11=
EXTT12=
PLAYORDER=
